<?xml version="1.0" encoding="UTF-8"?>
<svg width="64px" height="64px" viewBox="0 0 64 64" version="1.1" xmlns="http://www.w3.org/2000/svg" xmlns:xlink="http://www.w3.org/1999/xlink">
    <title>icon/48/tab加@1.5x</title>
    <g id="icon/48/tab加" stroke="none" stroke-width="1" fill="none" fill-rule="evenodd" fill-opacity="0.65">
        <g id="关注" transform="translate(21.000000, 21.000000)" fill="#000000">
            <path d="M11,0 C11.8284271,5.07265313e-17 12.5,0.671572875 12.5,1.5 L12.5,9.5 L20.5,9.5 C21.3284271,9.5 22,10.1715729 22,11 C22,11.8284271 21.3284271,12.5 20.5,12.5 L12.499,12.5 L12.5,20.5 C12.5,21.3284271 11.8284271,22 11,22 C10.1715729,22 9.5,21.3284271 9.5,20.5 L9.499,12.5 L1.5,12.5 C0.671572875,12.5 1.01453063e-16,11.8284271 0,11 C-1.01453063e-16,10.1715729 0.671572875,9.5 1.5,9.5 L9.5,9.5 L9.5,1.5 C9.5,0.671572875 10.1715729,-5.07265313e-17 11,0 Z" id="形状结合"></path>
        </g>
    </g>
</svg>