<?xml version="1.0" encoding="UTF-8"?>
<svg width="48px" height="48px" viewBox="0 0 48 48" version="1.1" xmlns="http://www.w3.org/2000/svg" xmlns:xlink="http://www.w3.org/1999/xlink">
    <title>icon/关闭直播</title>
    <g id="icon/关闭直播" stroke="none" stroke-width="1" fill="none" fill-rule="evenodd">
        <path d="M24,0 C37.254834,-2.4348735e-15 48,10.745166 48,24 C48,37.254834 37.254834,48 24,48 C10.745166,48 1.623249e-15,37.254834 0,24 C-1.623249e-15,10.745166 10.745166,2.4348735e-15 24,0 Z" id="矩形" fill-opacity="0.25" fill="#000000"></path>
        <path d="M36.5208153,11.4791847 C37.1066017,12.0649712 37.1066017,13.0147186 36.5208153,13.6005051 L26.6208449,23.4998449 L36.5208153,33.3994949 C37.0699901,33.9486697 37.1043135,34.8177321 36.6237856,35.4068929 L36.5208153,35.5208153 C35.9350288,36.1066017 34.9852814,36.1066017 34.3994949,35.5208153 L34.3994949,35.5208153 L24.4998449,25.6208449 L14.6005051,35.5208153 C14.0147186,36.1066017 13.0649712,36.1066017 12.4791847,35.5208153 C11.8933983,34.9350288 11.8933983,33.9852814 12.4791847,33.3994949 L22.3788449,23.4998449 L12.4791847,13.6005051 C11.9300099,13.0513303 11.8956865,12.1822679 12.3762144,11.5931071 L12.4791847,11.4791847 C13.0649712,10.8933983 14.0147186,10.8933983 14.6005051,11.4791847 L14.6005051,11.4791847 L24.4998449,21.3788449 L34.3994949,11.4791847 C34.9852814,10.8933983 35.9350288,10.8933983 36.5208153,11.4791847 Z" id="形状结合" fill="#FFFFFF"></path>
    </g>
</svg>