<?xml version="1.0" encoding="UTF-8"?>
<svg width="28px" height="28px" viewBox="0 0 28 28" version="1.1" xmlns="http://www.w3.org/2000/svg" xmlns:xlink="http://www.w3.org/1999/xlink">
    <title>全部</title>
    <g id="控件" stroke="none" stroke-width="1" fill="none" fill-rule="evenodd">
        <g id="画板" transform="translate(-2.000000, -2.000000)" fill-rule="nonzero">
            <g id="全部" transform="translate(2.000000, 2.000000)">
                <rect id="矩形" fill="#000000" opacity="0" x="0" y="0" width="28" height="28"></rect>
                <path d="M1.59960938,2.87109375 C1.59960938,2.20664063 2.13828125,1.66796875 2.80273438,1.66796875 L11.4433594,1.66796875 C12.1078125,1.66796875 12.6464844,2.20664063 12.6464844,2.87109375 L12.6464844,11.5117188 C12.6464844,12.1761719 12.1078125,12.7148438 11.4433594,12.7148438 L2.80273438,12.7148438 C2.13828125,12.7148438 1.59960938,12.1761719 1.59960938,11.5117188 L1.59960938,2.87109375 Z M4.00585938,4.07421875 L4.00585938,10.3085938 L10.2402344,10.3085938 L10.2402344,4.07421875 L4.00585938,4.07421875 Z M15.4355469,2.87109375 C15.4355469,2.20664063 15.9742188,1.66796875 16.6386719,1.66796875 L25.2792969,1.66796875 C25.94375,1.66796875 26.4824219,2.20664063 26.4824219,2.87109375 L26.4824219,11.5117188 C26.4824219,12.1761719 25.94375,12.7148438 25.2792969,12.7148438 L16.6386719,12.7148438 C15.9742188,12.7148438 15.4355469,12.1761719 15.4355469,11.5117188 L15.4355469,2.87109375 Z M17.8417969,4.07421875 L17.8417969,10.3085938 L24.0761719,10.3085938 L24.0761719,4.07421875 L17.8417969,4.07421875 Z M1.59960938,16.6523438 C1.59960938,15.9878906 2.13828125,15.4492188 2.80273438,15.4492188 L11.4433594,15.4492188 C12.1078125,15.4492188 12.6464844,15.9878906 12.6464844,16.6523438 L12.6464844,25.2929688 C12.6464844,25.9574219 12.1078125,26.4960938 11.4433594,26.4960938 L2.80273438,26.4960938 C2.13828125,26.4960938 1.59960938,25.9574219 1.59960938,25.2929688 L1.59960938,16.6523438 Z M4.00585938,17.8554688 L4.00585938,24.0898438 L10.2402344,24.0898438 L10.2402344,17.8554688 L4.00585938,17.8554688 Z M15.4355469,16.6523438 C15.4355469,15.9878906 15.9742188,15.4492188 16.6386719,15.4492188 L25.2792969,15.4492188 C25.94375,15.4492188 26.4824219,15.9878906 26.4824219,16.6523438 L26.4824219,25.2929688 C26.4824219,25.9574219 25.94375,26.4960938 25.2792969,26.4960938 L16.6386719,26.4960938 C15.9742188,26.4960938 15.4355469,25.9574219 15.4355469,25.2929688 L15.4355469,16.6523438 Z M17.8417969,17.8554688 L17.8417969,24.0898438 L24.0761719,24.0898438 L24.0761719,17.8554688 L17.8417969,17.8554688 Z" id="形状" fill="#02BACC"></path>
            </g>
        </g>
    </g>
</svg>