<?xml version="1.0" encoding="UTF-8"?>
<svg width="32px" height="32px" viewBox="0 0 32 32" version="1.1" xmlns="http://www.w3.org/2000/svg" xmlns:xlink="http://www.w3.org/1999/xlink">
    <g id="画板" stroke="none" stroke-width="1" fill="none" fill-rule="evenodd">
        <g id="1-Basis/1-Navigationbar-48/Search-2" transform="translate(2.000000, 2.000000)" fill="#8C8C8C" fill-rule="nonzero" stroke="#FFFFFF" stroke-width="0.6">
            <path d="M12.2472418,0.3 C15.5463815,0.3 18.5331919,1.63724058 20.6952174,3.7992661 C22.8572429,5.96129161 24.1944835,8.94810205 24.1944835,12.2472418 C24.1944835,15.0239636 23.247279,17.579476 21.6582098,19.6081574 L21.6582098,19.6081574 L27.0750622,25.0250098 C27.3581153,25.3080629 27.4996419,25.6790495 27.4996419,26.050036 C27.4996419,26.4210225 27.3581153,26.792009 27.0750622,27.0750622 C26.792009,27.3581153 26.4210225,27.4996419 26.050036,27.4996419 C25.6790495,27.4996419 25.3080629,27.3581153 25.0250098,27.0750622 L25.0250098,27.0750622 L19.6081574,21.6582098 C17.579476,23.247279 15.0239636,24.1944835 12.2472418,24.1944835 C8.94810205,24.1944835 5.96129161,22.8572429 3.7992661,20.6952174 C1.63724058,18.5331919 0.3,15.5463815 0.3,12.2472418 C0.3,8.94810205 1.63724058,5.96129161 3.7992661,3.7992661 C5.96129161,1.63724058 8.94810205,0.3 12.2472418,0.3 Z M12.2472418,3.19921193 C9.74869732,3.19921193 7.48668986,4.21194717 5.84931851,5.84931851 C4.21194717,7.48668986 3.19921193,9.74869732 3.19921193,12.2472418 C3.19921193,14.7457862 4.21194717,17.0077937 5.84931851,18.645165 C7.48668986,20.2825364 9.74869732,21.2952716 12.2472418,21.2952716 C14.7457862,21.2952716 17.0077937,20.2825364 18.645165,18.645165 C20.2825364,17.0077937 21.2952716,14.7457862 21.2952716,12.2472418 C21.2952716,9.74869732 20.2825364,7.48668986 18.645165,5.84931851 C17.0077937,4.21194717 14.7457862,3.19921193 12.2472418,3.19921193 Z" id="形状"></path>
        </g>
    </g>
</svg>